<?xml version="1.0" encoding="UTF-8" standalone="no"?>
<!-- Created with Inkscape (http://www.inkscape.org/) -->

<svg
   version="1.1"
   id="svg1"
   width="2829.3333"
   height="2829.3333"
   viewBox="0 0 2829.3333 2829.3333"
   sodipodi:docname="6000732a-cca4-4920-b8ad-beb66ce6238f.eps"
   xmlns:inkscape="http://www.inkscape.org/namespaces/inkscape"
   xmlns:sodipodi="http://sodipodi.sourceforge.net/DTD/sodipodi-0.dtd"
   xmlns="http://www.w3.org/2000/svg"
   xmlns:svg="http://www.w3.org/2000/svg">
  <defs
     id="defs1" />
  <sodipodi:namedview
     id="namedview1"
     pagecolor="#ffffff"
     bordercolor="#000000"
     borderopacity="0.25"
     inkscape:showpageshadow="2"
     inkscape:pageopacity="0.0"
     inkscape:pagecheckerboard="0"
     inkscape:deskcolor="#d1d1d1">
    <inkscape:page
       x="0"
       y="0"
       inkscape:label="1"
       id="page1"
       width="2829.3333"
       height="2829.3333"
       margin="0"
       bleed="0" />
  </sodipodi:namedview>
  <g
     id="g1"
     inkscape:groupmode="layer"
     inkscape:label="1">
    <g
       id="group-R5">
      <path
         id="path2"
         d="m 20350.6,3156.4 c -20.9,74.1 -122.6,74.4 -210.6,49.9 -381,-105.8 -783,-103.4 -1162.6,6.9 -189.7,55.1 -373.5,137.5 -551.3,217.2 -148.8,66.8 -302.7,135.8 -459.5,188.5 l -4.8,-0.3 -3.1,-3.7 c -106.2,-343.7 -355,-661.5 -682.6,-871.8 -67.9,-43.6 -149.3,-88.7 -237.9,-92.3 -80,-2.4 -175.2,37.4 -203.1,121 -24.6,73.3 8.8,150.5 41.1,225.1 l 8.3,19.3 c 86.2,202 122.3,430.5 107.3,679.2 l -2.3,4.5 -4.9,1.3 c -218.3,-35 -426.2,-103.7 -617.8,-204.2 -73.6,-38.6 -146,-82.4 -215.9,-124.8 -104.5,-63.3 -212.7,-128.8 -326.5,-177.7 -187.1,-80.5 -409,-124.2 -659.6,-129.8 -71.7,-1.7 -163.3,-20.4 -205.1,-68.3 -18,-20.5 -25.5,-44.8 -22.5,-72.1 4.1,-36.1 28.8,-69.5 75.7,-102.1 135,-93.9 291.8,-112 443.5,-129.6 44.9,-5.2 91.3,-10.5 136.6,-17.7 76.1,-12.3 155.9,4.5 233,20.8 95.3,20 193.9,40.7 283.2,4.8 40.7,-16.3 76,-44.5 110.2,-71.9 13.6,-10.9 27.6,-22.1 41.9,-32.5 135.1,-98.6 313.2,-135.8 476.4,-99.3 35.5,8 71.1,19.7 105.6,34.8 25.3,-36.9 65.3,-67.4 125.5,-95.7 102.8,-48.2 215.7,-72.9 328.7,-72.9 55,0 110.1,5.8 164.1,17.7 65.7,14.4 129.8,37.6 191.9,60 40.4,14.6 82.3,29.8 124,42.2 234.7,70.3 456,33.8 690.4,-4.8 143.6,-23.7 292.7,-48.4 443.2,-45.5 389.8,6.9 769.8,111.6 1099.1,302.7 116.7,67.7 278.2,177.4 333.9,347.1 6.9,20.8 13.8,48.1 6.5,74"
         style="fill:#b5c6d2;fill-opacity:1;fill-rule:nonzero;stroke:none"
         transform="matrix(0.13333333,0,0,-0.13333333,0,2829.3333)" />
      <path
         id="path3"
         d="m 5563.37,10674.7 c -392.35,186 -766.63,468.7 -1026.84,775.6 l -7.75,1.4 c -61.44,-33.8 -111.6,-59.9 -157.85,-82.2 -273.65,-132.2 -591.45,-217.6 -1000.18,-268.8 l -31.93,-3.9 c -172.7,-21.3 -351.26,-43.2 -490.4,-146.5 -25.19,-18.7 -59.81,-48.4 -69.5,-90.1 -12.89,-55.3 22.63,-108 63.53,-135.7 44.63,-30.2 100.46,-40.6 145.31,-48.9 482.83,-89.5 946.72,-134.3 1386.79,-134.3 257.71,0 507.31,15.4 747.65,46.2 148.31,19 296.27,44.4 439.81,75.5 l 4.87,5.3 -3.51,6.4"
         style="fill:#b5c6d2;fill-opacity:1;fill-rule:nonzero;stroke:none"
         transform="matrix(0.13333333,0,0,-0.13333333,0,2829.3333)" />
      <path
         id="path4"
         d="m 18449.5,8727.8 c -105.1,699.5 -280,1416.1 -534.7,2191 -274,833.2 -561.5,1485.9 -904.9,2054.3 -953.1,1577.1 -2597.1,2849.1 -4629.4,3581.6 -888.9,320.4 -1833.2,435.5 -2721.28,512.1 -210.03,18.1 -423.75,34.6 -630.4,50.5 l -65.09,5 c -115.88,8.9 -231.74,17.9 -347.57,27.3 -46.02,3.8 -90.31,0.4 -133.16,-2.9 -39.32,-3 -79.95,-6 -121.07,-3.5 -306.7,18.7 -616.95,63 -917,105.9 -130.79,18.7 -266.02,38 -399.01,54.9 -344.35,43.8 -751.66,87.1 -1162.16,76.5 -29.91,-0.6 -86.46,84.6 -119.85,135.6 -14.52,22.2 -25.99,39.7 -33.89,48.9 -86.53,100.8 -187.43,184.3 -300.83,275.3 -437.8,351.4 -964.7,631.6 -1523.75,810.5 -583.26,186.5 -1174.59,252.2 -1710.23,189.9 -251.03,-29.1 -607.55,-116.6 -880.36,-367.8 -263.7,-242.7 -423.409,-617.7 -449.748,-1055.9 -79.145,-1318 696.128,-2515.8 1380.148,-3572.6 l 20.9,-32.4 c 339.76,-525 727.89,-979.8 1153.67,-1351.8 276.8,-241.9 573.76,-449 853.54,-636.8 58.71,-123.6 144.04,-251.9 253.67,-381.2 261.31,-308.2 637.1,-592 1030.98,-778.8 305.36,-144.7 765.43,-300 1224.24,-218.2 784.09,-279.7 1619.15,-435.6 2426.72,-586.4 925.13,-172.7 1881.73,-351.3 2762.83,-716.9 901.4,-373.9 1754.3,-955.7 2535.1,-1729.1 122.8,-121.7 251.1,-238.2 375,-350.9 221.1,-200.8 449.7,-408.5 650.5,-648.8 295,-353.1 578.8,-759.7 892.9,-1279.9 177.1,-293.3 375,-637.7 480.6,-1012.4 40.3,-143.3 65.1,-286.7 73.5,-426.2 14.9,-246.7 -20.9,-473.3 -106.4,-673.5 l -8.3,-19.3 c -33.2,-76.8 -67.5,-156.1 -41.5,-234 28.9,-86.2 123.9,-129.6 206.3,-129.6 l 9.2,0.2 c 91.6,3.7 174.8,49.7 244.1,94.1 330,211.9 580.7,532.2 687.8,878.7 13,42.2 24,84.9 32.5,126.8 38.9,191 106.3,380.3 171.4,563.3 65.8,185 133.9,376.2 173.8,571.6 260.3,1273 294.4,2569.9 101.2,3854.9"
         style="fill:#eaeae8;fill-opacity:1;fill-rule:nonzero;stroke:none"
         transform="matrix(0.13333333,0,0,-0.13333333,0,2829.3333)" />
      <path
         id="path5"
         d="m 6334.96,16286.2 c -18.71,123.7 -74.42,229 -161.11,304.5 -44.61,38.8 -96.96,68.9 -151.4,86.9 -28.41,9.4 -57.79,15.8 -87.31,19.1 -10.99,1.1 -24.24,0.2 -37.01,-0.7 -16.93,-1.2 -34.47,-2.5 -46.48,1.2 l -7.79,-4.2 4.14,-7.7 c 41.73,-12.8 85.6,-31 94.57,-69.3 v 0 c 4.38,-18.7 -0.86,-37.7 -6.36,-57.8 -2.78,-10.1 -5.63,-20.5 -7.24,-30.9 -11.27,-73.9 42.17,-142 100.15,-176.7 31.89,-19.1 61.73,-28.4 90.94,-27.8 17.83,0.4 36.05,4.6 53.66,8.7 23,5.4 46.77,10.9 69.07,7.5 28.28,-4.3 49.2,-25.5 69.47,-46 l 12.21,-12.2 4.33,-1.8 2.85,0.7 3.31,6.5"
         style="fill:#120f0c;fill-opacity:1;fill-rule:nonzero;stroke:none"
         transform="matrix(0.13333333,0,0,-0.13333333,0,2829.3333)" />
      <path
         id="path6"
         d="m 2069.8,16610.4 c 81.69,64.4 160.35,108.1 240.49,133.5 150.69,47.8 315.96,31 443.05,10.9 174.03,-27.5 347.87,-72.2 515.98,-115.4 110.11,-28.4 223.95,-57.6 337.05,-81.9 445.09,-95.4 900.19,-119 1352.81,-70.1 6.85,0.7 11.79,6.9 11.06,13.7 -0.73,6.9 -6.77,11.8 -13.74,11.1 -449.96,-48.6 -902.46,-25.1 -1344.92,69.7 -112.59,24.1 -226.19,53.4 -336.05,81.6 -168.68,43.4 -343.12,88.3 -518.3,115.9 -129.84,20.5 -298.85,37.7 -454.49,-11.7 -83.04,-26.4 -164.29,-71.4 -248.38,-137.7 -322.36,-254.1 -492.81,-696.6 -424.11,-1101.3 1.04,-6.1 6.3,-10.3 12.27,-10.3 l 2.12,0.2 c 6.77,1.1 11.35,7.5 10.21,14.3 -67.21,395.9 99.54,828.9 414.95,1077.5"
         style="fill:#120f0c;fill-opacity:1;fill-rule:nonzero;stroke:none"
         transform="matrix(0.13333333,0,0,-0.13333333,0,2829.3333)" />
      <path
         id="path7"
         d="m 2374.41,17617.5 c 6.63,1.8 10.52,8.7 8.67,15.4 -1.85,6.6 -8.53,10.4 -15.35,8.6 -452.66,-125.6 -1087.86,-647.1 -1013.76,-1147 0.9,-6.2 6.24,-10.7 12.31,-10.7 l 1.85,0.2 c 6.82,1 11.52,7.3 10.49,14.1 -72.13,486.8 551.58,996.1 995.79,1119.4"
         style="fill:#120f0c;fill-opacity:1;fill-rule:nonzero;stroke:none"
         transform="matrix(0.13333333,0,0,-0.13333333,0,2829.3333)" />
      <path
         id="path8"
         d="m 2868.83,17679.6 c 349.96,-1.3 694.89,-83 1028.45,-162 228.04,-54 463.83,-109.8 699.93,-139.8 l 1.58,-0.1 c 6.19,0 11.55,4.6 12.35,10.9 0.88,6.8 -3.97,13.1 -10.81,13.9 -234.77,29.8 -469.9,85.5 -697.3,139.4 -334.93,79.3 -681.26,161.3 -1034.1,162.6 h -0.05 c -6.87,0 -12.45,-5.5 -12.47,-12.4 -0.03,-6.9 5.53,-12.5 12.42,-12.5"
         style="fill:#120f0c;fill-opacity:1;fill-rule:nonzero;stroke:none"
         transform="matrix(0.13333333,0,0,-0.13333333,0,2829.3333)" />
      <path
         id="path9"
         d="m 6887.83,16422.4 c 399.73,-311.1 813.06,-632.9 1086.89,-1071.2 l 10.57,-5.8 6.61,1.9 c 5.84,3.6 7.62,11.3 3.97,17.1 -276.18,442.1 -691.28,765.2 -1092.7,1077.7 -5.5,4.3 -13.3,3.3 -17.51,-2.2 -4.24,-5.4 -3.27,-13.2 2.17,-17.5"
         style="fill:#120f0c;fill-opacity:1;fill-rule:nonzero;stroke:none"
         transform="matrix(0.13333333,0,0,-0.13333333,0,2829.3333)" />
      <path
         id="path10"
         d="m 7208.39,15744 10.81,-6.3 6.22,1.7 c 5.96,3.4 8.03,11 4.6,17 -158.42,276.5 -345.94,537.7 -557.37,776.5 -4.6,5.3 -12.5,5.7 -17.59,1.1 -5.16,-4.6 -5.65,-12.5 -1.07,-17.6 210.28,-237.6 396.81,-497.4 554.4,-772.4"
         style="fill:#120f0c;fill-opacity:1;fill-rule:nonzero;stroke:none"
         transform="matrix(0.13333333,0,0,-0.13333333,0,2829.3333)" />
      <path
         id="path11"
         d="m 6657.84,11803.4 c 739.29,-617.2 1652.74,-953.4 2536.12,-1278.5 l 4.31,-0.7 c 5.07,0 9.85,3.1 11.7,8.1 2.39,6.5 -0.93,13.6 -7.38,16 -881.39,324.4 -1792.79,659.8 -2528.77,1274.3 -233.15,194.6 -448.06,418.3 -655.9,634.5 -272.53,283.5 -554.31,576.7 -880.42,807.9 -5.6,4 -13.4,2.6 -17.39,-3 -3.97,-5.6 -2.66,-13.4 2.97,-17.4 324.16,-229.7 605.14,-522.1 876.85,-804.8 208.29,-216.7 423.68,-440.9 657.91,-636.4"
         style="fill:#120f0c;fill-opacity:1;fill-rule:nonzero;stroke:none"
         transform="matrix(0.13333333,0,0,-0.13333333,0,2829.3333)" />
      <path
         id="path12"
         d="m 5208.61,11711.6 c -172.52,126.3 -361.73,245 -576.17,257.3 -7.34,-0.5 -12.77,-4.9 -13.16,-11.8 -0.39,-6.8 4.85,-12.7 11.74,-13.2 207.97,-11.8 393.42,-128.3 562.83,-252.5 269.47,-197.3 521.17,-421.8 748.08,-667.1 l 9.16,-4 8.48,3.3 c 5.04,4.7 5.36,12.6 0.68,17.6 -228.01,246.5 -480.9,472 -751.64,670.4"
         style="fill:#120f0c;fill-opacity:1;fill-rule:nonzero;stroke:none"
         transform="matrix(0.13333333,0,0,-0.13333333,0,2829.3333)" />
      <path
         id="path13"
         d="m 16640.3,6341.4 2.7,0.3 c 6.8,1.5 11,8.2 9.4,14.9 -138.9,608.6 -460.3,1202.3 -929.4,1716.7 -408.2,447.7 -935.4,845 -1567,1180.6 -6.1,3.2 -13.6,0.9 -16.9,-5.2 -3.2,-6 -0.9,-13.6 5.2,-16.8 629,-334.3 1154,-729.8 1560.3,-1175.4 466.2,-511.3 785.6,-1101 923.5,-1705.4 1.3,-5.8 6.5,-9.7 12.2,-9.7"
         style="fill:#120f0c;fill-opacity:1;fill-rule:nonzero;stroke:none"
         transform="matrix(0.13333333,0,0,-0.13333333,0,2829.3333)" />
      <path
         id="path14"
         d="m 13038,9061 c -6.4,2.5 -13.6,-0.8 -16.1,-7.2 -2.5,-6.4 0.8,-13.6 7.2,-16.1 755.6,-290.1 1440.9,-805.2 1929.6,-1450.5 l 9.9,-5 7.6,2.6 c 5.5,4.1 6.5,12 2.4,17.5 C 14487.1,8251.2 13798,8769.2 13038,9061"
         style="fill:#120f0c;fill-opacity:1;fill-rule:nonzero;stroke:none"
         transform="matrix(0.13333333,0,0,-0.13333333,0,2829.3333)" />
      <path
         id="path15"
         d="m 16877.6,6122.8 c -4.1,5.5 -12,6.6 -17.4,2.5 -5.5,-4.1 -6.7,-11.9 -2.6,-17.5 269,-362.1 466.2,-766.3 586.1,-1201.3 1.5,-5.6 6.6,-9.2 12,-9.2 l 3.3,0.5 c 6.7,1.8 10.6,8.7 8.8,15.3 -120.8,438 -319.3,844.9 -590.2,1209.7"
         style="fill:#120f0c;fill-opacity:1;fill-rule:nonzero;stroke:none"
         transform="matrix(0.13333333,0,0,-0.13333333,0,2829.3333)" />
      <path
         id="path16"
         d="m 10087.9,11630.4 11,6.5 c 3.3,6.1 1,13.6 -5.1,16.9 -79.1,42.8 -168.46,65.9 -258.38,66.9 h -0.14 c -6.82,0 -12.4,-5.5 -12.47,-12.3 -0.08,-7 5.45,-12.5 12.32,-12.6 85.89,-1 171.27,-23.1 246.87,-63.9 l 5.9,-1.5"
         style="fill:#120f0c;fill-opacity:1;fill-rule:nonzero;stroke:none"
         transform="matrix(0.13333333,0,0,-0.13333333,0,2829.3333)" />
      <path
         id="path17"
         d="m 10052.6,13218 c -6.9,-0.4 -12,-6.4 -11.5,-13.3 5.3,-69.9 32.4,-138.5 76.2,-193.2 l 9.7,-4.7 7.8,2.8 c 5.4,4.3 6.3,12.1 2,17.5 -40.8,50.8 -65.9,114.5 -70.8,179.4 -0.6,7 -6.6,12.6 -13.4,11.5"
         style="fill:#120f0c;fill-opacity:1;fill-rule:nonzero;stroke:none"
         transform="matrix(0.13333333,0,0,-0.13333333,0,2829.3333)" />
      <path
         id="path18"
         d="m 10228,11795.6 c 4.6,0 9.1,2.5 11.2,6.9 3.1,6.2 0.6,13.7 -5.6,16.7 -74.9,37.1 -154.7,63.5 -237.06,78.6 -6.82,1.4 -13.27,-3.3 -14.51,-10.1 -1.22,-6.8 3.26,-13.3 10.03,-14.5 80.04,-14.6 157.64,-40.3 230.44,-76.3 l 5.5,-1.3"
         style="fill:#120f0c;fill-opacity:1;fill-rule:nonzero;stroke:none"
         transform="matrix(0.13333333,0,0,-0.13333333,0,2829.3333)" />
      <path
         id="path19"
         d="m 10087.3,12854.6 c -85.2,30.8 -155.6,95.7 -193.19,178.1 -2.83,6.2 -10.23,9.1 -16.54,6.2 -6.26,-2.9 -9.02,-10.3 -6.17,-16.5 40.37,-88.5 115.96,-158.2 207.4,-191.2 l 4.2,-0.8 c 5.1,0 9.9,3.2 11.7,8.3 2.4,6.4 -1,13.6 -7.4,15.9"
         style="fill:#120f0c;fill-opacity:1;fill-rule:nonzero;stroke:none"
         transform="matrix(0.13333333,0,0,-0.13333333,0,2829.3333)" />
      <path
         id="path20"
         d="m 2145.81,17098.3 c 6.55,2.1 10.16,9.1 8.04,15.6 -2.12,6.6 -9.16,10.3 -15.69,8.1 -252.93,-81.5 -467.87,-286.7 -560.92,-535.6 -2.42,-6.5 0.88,-13.6 7.33,-16.1 l 4.36,-0.7 c 5.04,0 9.82,3.1 11.69,8.1 90.43,241.9 299.34,441.4 545.19,520.6"
         style="fill:#120f0c;fill-opacity:1;fill-rule:nonzero;stroke:none"
         transform="matrix(0.13333333,0,0,-0.13333333,0,2829.3333)" />
      <path
         id="path21"
         d="m 2006.64,16125.4 c -4.9,4.8 -12.79,4.6 -17.64,-0.3 -4.77,-5 -4.63,-12.9 0.34,-17.7 240.68,-231.5 468.6,-480.8 677.42,-740.9 l 9.72,-4.7 7.79,2.7 c 5.39,4.4 6.24,12.2 1.93,17.6 -209.47,261 -438.12,511.1 -679.56,743.3"
         style="fill:#120f0c;fill-opacity:1;fill-rule:nonzero;stroke:none"
         transform="matrix(0.13333333,0,0,-0.13333333,0,2829.3333)" />
      <path
         id="path22"
         d="m 2502.47,16068.4 c -4.6,5.2 -12.49,5.7 -17.59,1.1 -5.16,-4.6 -5.65,-12.5 -1.07,-17.6 l 997.08,-1127.3 9.33,-4.2 8.26,3.2 c 5.16,4.6 5.65,12.4 1.07,17.6 l -997.08,1127.2"
         style="fill:#120f0c;fill-opacity:1;fill-rule:nonzero;stroke:none"
         transform="matrix(0.13333333,0,0,-0.13333333,0,2829.3333)" />
      <path
         id="path23"
         d="m 4754.41,13196.5 8.84,-3.7 8.79,3.6 c 4.88,4.8 4.9,12.7 0.05,17.6 -185.23,186.4 -380.87,367.4 -581.51,537.7 -5.21,4.5 -13.08,3.8 -17.56,-1.4 -4.46,-5.2 -3.83,-13.1 1.44,-17.6 200.07,-169.9 395.2,-350.3 579.95,-536.2"
         style="fill:#120f0c;fill-opacity:1;fill-rule:nonzero;stroke:none"
         transform="matrix(0.13333333,0,0,-0.13333333,0,2829.3333)" />
      <path
         id="path24"
         d="m 1850.22,15478.8 c -3.32,6.1 -10.91,8.2 -16.91,5 -6.06,-3.2 -8.3,-10.9 -5.01,-16.9 219.07,-403.5 469.93,-794 745.67,-1160.8 l 9.96,-4.9 7.51,2.4 c 5.5,4.2 6.6,12 2.46,17.5 -274.98,365.8 -525.19,755.4 -743.68,1157.7"
         style="fill:#120f0c;fill-opacity:1;fill-rule:nonzero;stroke:none"
         transform="matrix(0.13333333,0,0,-0.13333333,0,2829.3333)" />
      <path
         id="path25"
         d="m 5481.98,16477 c 259.88,-112.3 492.26,-287.3 672.01,-506.1 l 9.65,-4.5 7.92,2.8 c 5.33,4.4 6.08,12.2 1.72,17.6 -182.29,221.8 -417.9,399.3 -681.41,513.1 -6.33,2.8 -13.64,-0.2 -16.39,-6.5 -2.73,-6.3 0.17,-13.6 6.5,-16.4"
         style="fill:#120f0c;fill-opacity:1;fill-rule:nonzero;stroke:none"
         transform="matrix(0.13333333,0,0,-0.13333333,0,2829.3333)" />
      <path
         id="path26"
         d="m 5494.46,16562.9 c 51.83,-21.1 101.87,-47.3 148.69,-77.7 l 6.8,-2 10.45,5.7 c 3.75,5.8 2.12,13.5 -3.66,17.2 -48.13,31.3 -99.58,58.2 -152.88,79.9 -6.36,2.6 -13.65,-0.4 -16.25,-6.8 -2.61,-6.4 0.46,-13.7 6.85,-16.3"
         style="fill:#120f0c;fill-opacity:1;fill-rule:nonzero;stroke:none"
         transform="matrix(0.13333333,0,0,-0.13333333,0,2829.3333)" />
      <path
         id="path27"
         d="m 6474.38,16039.1 c 2.05,-4.6 6.63,-7.4 11.43,-7.4 l 4.99,1 c 6.31,2.8 9.19,10.1 6.43,16.5 -27.65,63.2 -58.73,125.7 -92.33,185.9 -3.38,6.1 -11.01,8.1 -16.97,4.8 -6.02,-3.4 -8.17,-11 -4.8,-17 33.2,-59.4 63.92,-121.3 91.25,-183.8"
         style="fill:#120f0c;fill-opacity:1;fill-rule:nonzero;stroke:none"
         transform="matrix(0.13333333,0,0,-0.13333333,0,2829.3333)" />
      <path
         id="path28"
         d="m 6456.53,16210.3 c 67.84,-37 128.74,-88.9 176.12,-150 l 9.87,-4.9 7.64,2.7 c 5.44,4.2 6.44,12 2.22,17.5 -49.5,63.8 -113.08,117.9 -183.87,156.6 -6.04,3.3 -13.64,1.1 -16.93,-4.9 -3.32,-6.1 -1.1,-13.7 4.95,-17"
         style="fill:#120f0c;fill-opacity:1;fill-rule:nonzero;stroke:none"
         transform="matrix(0.13333333,0,0,-0.13333333,0,2829.3333)" />
      <path
         id="path29"
         d="m 5742.37,16770.4 c 171.84,-14.1 343.44,-63.7 496.27,-143.5 l 5.78,-1.4 11.06,6.7 c 3.19,6.2 0.83,13.7 -5.29,16.9 -155.76,81.3 -330.64,131.8 -505.77,146.1 -7.33,0.5 -12.87,-4.5 -13.45,-11.4 -0.56,-6.9 4.53,-12.9 11.4,-13.4"
         style="fill:#120f0c;fill-opacity:1;fill-rule:nonzero;stroke:none"
         transform="matrix(0.13333333,0,0,-0.13333333,0,2829.3333)" />
      <path
         id="path30"
         d="m 1561.18,15609.7 c -0.71,6.9 -7.06,12 -13.69,11.2 -6.84,-0.8 -11.81,-6.9 -11.11,-13.7 5.24,-50.8 15.79,-101.2 31.31,-149.8 1.7,-5.3 6.6,-8.6 11.88,-8.6 l 3.8,0.6 c 6.56,2.1 10.19,9.1 8.09,15.7 -15.01,46.9 -25.19,95.5 -30.28,144.6"
         style="fill:#120f0c;fill-opacity:1;fill-rule:nonzero;stroke:none"
         transform="matrix(0.13333333,0,0,-0.13333333,0,2829.3333)" />
      <path
         id="path31"
         d="m 1321.89,16864.5 c -6.51,2.3 -13.62,-1.1 -15.91,-7.7 -53.44,-151.7 -67.82,-315.8 -41.51,-474.5 1,-6.1 6.29,-10.4 12.28,-10.4 l 2.07,0.1 c 6.8,1.1 11.38,7.6 10.26,14.4 -25.61,154.5 -11.62,314.3 40.43,462.2 2.29,6.5 -1.12,13.6 -7.62,15.9"
         style="fill:#120f0c;fill-opacity:1;fill-rule:nonzero;stroke:none"
         transform="matrix(0.13333333,0,0,-0.13333333,0,2829.3333)" />
      <path
         id="path32"
         d="m 4504.15,17539.2 c 69.11,-45.4 144.72,-79 224.77,-99.8 l 3.15,-0.4 c 5.55,0 10.62,3.7 12.08,9.3 1.73,6.7 -2.26,13.5 -8.94,15.3 -77.41,20.1 -150.55,52.6 -217.37,96.5 -5.79,3.8 -13.49,2.2 -17.27,-3.6 -3.78,-5.8 -2.17,-13.5 3.58,-17.3"
         style="fill:#120f0c;fill-opacity:1;fill-rule:nonzero;stroke:none"
         transform="matrix(0.13333333,0,0,-0.13333333,0,2829.3333)" />
      <path
         id="path33"
         d="m 4777.53,16607.4 c 70.01,-37.9 149.03,-58.6 228.52,-59.8 h 0.19 c 6.8,0 12.38,5.4 12.48,12.3 0.1,6.9 -5.39,12.5 -12.28,12.6 -75.49,1.2 -150.55,20.9 -217.03,56.9 -6.04,3.2 -13.61,1 -16.9,-5.1 -3.29,-6 -1.02,-13.6 5.02,-16.9"
         style="fill:#120f0c;fill-opacity:1;fill-rule:nonzero;stroke:none"
         transform="matrix(0.13333333,0,0,-0.13333333,0,2829.3333)" />
      <path
         id="path34"
         d="m 2439.5,16602.8 c -86.8,-18.2 -178.66,-39.2 -263.8,-77.4 -94.2,-42.3 -168.65,-102.1 -215.25,-172.8 -3.78,-5.8 -2.19,-13.5 3.56,-17.3 l 6.87,-2.1 10.42,5.6 c 43.97,66.9 114.74,123.5 204.63,163.9 82.85,37.2 173.23,57.8 258.69,75.7 6.75,1.4 11.06,8 9.64,14.8 -1.41,6.7 -8.18,11.1 -14.76,9.6"
         style="fill:#120f0c;fill-opacity:1;fill-rule:nonzero;stroke:none"
         transform="matrix(0.13333333,0,0,-0.13333333,0,2829.3333)" />
      <path
         id="path35"
         d="m 2285.3,17446.1 c -155.74,-45.5 -305.14,-123.1 -432.03,-224.3 -5.39,-4.3 -6.29,-12.1 -1.98,-17.5 l 9.75,-4.7 7.77,2.7 c 124.38,99.2 270.81,175.3 423.51,219.9 6.6,1.9 10.4,8.8 8.45,15.4 -1.93,6.6 -8.82,10.4 -15.47,8.5"
         style="fill:#120f0c;fill-opacity:1;fill-rule:nonzero;stroke:none"
         transform="matrix(0.13333333,0,0,-0.13333333,0,2829.3333)" />
      <path
         id="path36"
         d="m 1642.13,17353 8.46,3.3 c 144.62,133.5 320.21,235.5 507.81,295 6.56,2.1 10.21,9.1 8.12,15.7 -2.07,6.5 -8.99,10.2 -15.67,8.1 -191.06,-60.6 -369.89,-164.5 -517.17,-300.5 -5.07,-4.7 -5.38,-12.5 -0.7,-17.6 l 9.15,-4"
         style="fill:#120f0c;fill-opacity:1;fill-rule:nonzero;stroke:none"
         transform="matrix(0.13333333,0,0,-0.13333333,0,2829.3333)" />
      <path
         id="path37"
         d="m 1862.16,16129.9 c -4.73,-5 -4.51,-12.9 0.49,-17.6 l 211.08,-200 8.57,-3.4 9.06,3.9 c 4.73,5 4.51,12.9 -0.48,17.6 l -211.09,200 c -5.02,4.7 -12.88,4.5 -17.63,-0.5"
         style="fill:#120f0c;fill-opacity:1;fill-rule:nonzero;stroke:none"
         transform="matrix(0.13333333,0,0,-0.13333333,0,2829.3333)" />
      <path
         id="path38"
         d="m 2548.69,14535.8 c -4.56,5.2 -12.48,5.6 -17.62,1.1 -5.16,-4.6 -5.67,-12.5 -1.14,-17.6 l 216.22,-246.4 9.38,-4.3 8.23,3.1 c 5.17,4.6 5.68,12.5 1.15,17.6 l -216.22,246.5"
         style="fill:#120f0c;fill-opacity:1;fill-rule:nonzero;stroke:none"
         transform="matrix(0.13333333,0,0,-0.13333333,0,2829.3333)" />
      <path
         id="path39"
         d="m 2502.35,15472.8 c -5.02,4.6 -12.91,4.4 -17.64,-0.6 -4.7,-5 -4.43,-12.9 0.59,-17.7 83.85,-78.4 159.59,-166 225.12,-260.4 l 10.25,-5.3 7.11,2.2 c 5.66,3.9 7.07,11.7 3.15,17.3 -66.56,95.9 -143.46,184.8 -228.58,264.5"
         style="fill:#120f0c;fill-opacity:1;fill-rule:nonzero;stroke:none"
         transform="matrix(0.13333333,0,0,-0.13333333,0,2829.3333)" />
      <path
         id="path40"
         d="m 3396.09,15168.2 c -4.22,5.4 -12.11,6.3 -17.49,2.1 -5.44,-4.2 -6.41,-12 -2.14,-17.5 l 257.99,-330.3 9.85,-4.8 7.67,2.6 c 5.43,4.3 6.41,12.1 2.17,17.6 l -258.05,330.3"
         style="fill:#120f0c;fill-opacity:1;fill-rule:nonzero;stroke:none"
         transform="matrix(0.13333333,0,0,-0.13333333,0,2829.3333)" />
      <path
         id="path41"
         d="m 4393.04,13701.8 9.8,4.8 c 4.26,5.4 3.33,13.2 -2.07,17.5 -91.89,72.4 -187.78,142.4 -284.97,208 -5.71,3.9 -13.47,2.4 -17.33,-3.3 -3.87,-5.7 -2.36,-13.5 3.34,-17.3 96.71,-65.3 192.11,-135 283.51,-207 l 7.72,-2.7"
         style="fill:#120f0c;fill-opacity:1;fill-rule:nonzero;stroke:none"
         transform="matrix(0.13333333,0,0,-0.13333333,0,2829.3333)" />
      <path
         id="path42"
         d="m 4902.96,13303.8 c -4.31,-5.4 -3.41,-13.3 1.97,-17.5 123.94,-99 251.13,-196.7 378.03,-290.8 l 7.42,-2.4 10.02,5 c 4.11,5.5 2.95,13.3 -2.58,17.5 -126.65,93.8 -253.62,191.4 -377.35,290.1 -5.33,4.3 -13.18,3.5 -17.51,-1.9"
         style="fill:#120f0c;fill-opacity:1;fill-rule:nonzero;stroke:none"
         transform="matrix(0.13333333,0,0,-0.13333333,0,2829.3333)" />
      <path
         id="path43"
         d="m 4934.92,11759 c -142.81,38.4 -289.36,66.9 -435.59,84.9 -6.51,0.5 -13.03,-4.1 -13.89,-10.9 -0.85,-6.8 4.02,-13.1 10.87,-13.9 145.07,-17.8 290.45,-46.1 432.13,-84.2 l 3.24,-0.4 c 5.51,0 10.54,3.6 12.03,9.2 1.8,6.7 -2.14,13.5 -8.79,15.3"
         style="fill:#120f0c;fill-opacity:1;fill-rule:nonzero;stroke:none"
         transform="matrix(0.13333333,0,0,-0.13333333,0,2829.3333)" />
      <path
         id="path44"
         d="m 6652.77,10676.4 c 5.12,0 9.92,3.1 11.74,8.2 2.32,6.5 -1.04,13.6 -7.55,16 -184.77,66.1 -362.12,153.6 -527.09,260.2 -5.74,3.7 -13.52,2.1 -17.24,-3.7 -3.75,-5.8 -2.07,-13.5 3.7,-17.3 166.6,-107.6 345.65,-196 532.25,-262.7 l 4.19,-0.7"
         style="fill:#120f0c;fill-opacity:1;fill-rule:nonzero;stroke:none"
         transform="matrix(0.13333333,0,0,-0.13333333,0,2829.3333)" />
      <path
         id="path45"
         d="m 6778.81,10553.3 c -92.22,17.5 -182.16,46.6 -267.28,86.5 -6.19,2.8 -13.64,0.2 -16.59,-6 -2.92,-6.3 -0.22,-13.7 6.02,-16.6 86.99,-40.8 178.92,-70.6 273.23,-88.5 l 2.33,-0.2 c 5.87,0 11.09,4.2 12.23,10.2 1.29,6.7 -3.16,13.3 -9.94,14.6"
         style="fill:#120f0c;fill-opacity:1;fill-rule:nonzero;stroke:none"
         transform="matrix(0.13333333,0,0,-0.13333333,0,2829.3333)" />
      <path
         id="path46"
         d="m 9582.93,10255.6 c -289.96,107.9 -587.21,208.9 -883.49,300.2 -6.55,2 -13.57,-1.7 -15.59,-8.3 -2.04,-6.5 1.66,-13.5 8.24,-15.5 295.83,-91.2 592.62,-192.1 882.12,-299.8 l 4.36,-0.8 c 5.07,0 9.82,3.2 11.69,8.2 2.39,6.4 -0.88,13.6 -7.33,16"
         style="fill:#120f0c;fill-opacity:1;fill-rule:nonzero;stroke:none"
         transform="matrix(0.13333333,0,0,-0.13333333,0,2829.3333)" />
      <path
         id="path47"
         d="m 13276.7,9594.1 c 206.8,-22.7 417.2,-26.6 624.1,-26.6 55.9,0 111.5,0.3 166.7,0.6 l 1002.3,5.2 c 124.6,0.6 243.6,7.1 331.5,78.9 67,54.5 101.1,138.8 120.9,197.4 128.1,379.3 57.9,825.5 -214.6,1364.3 -216.9,428.9 -495,822.9 -826.6,1171.1 -120.2,126.1 -267.3,268.6 -448,369.6 -275.8,154.2 -603.1,194.9 -915.8,216 -380.8,25.8 -808.7,-33.7 -1222.4,-91.1 -733.8,-101.8 -1426.9,-198.1 -1874.8,140.4 -5.5,4.2 -13.3,3.2 -17.4,-2.4 -4.21,-5.4 -3.11,-13.3 2.4,-17.4 456.1,-344.8 1154.2,-247.9 1893.2,-145.3 412.5,57.3 839.1,116.5 1217.4,90.9 309.7,-20.9 633.8,-61.1 905.3,-212.8 177.7,-99.4 323.2,-240.4 442,-365.2 329.9,-346.3 606.6,-738.4 822.5,-1165.2 269.3,-532.4 339,-972.3 213.2,-1344.9 -18.9,-55.7 -51.1,-135.6 -113.1,-186.2 -81.5,-66.5 -195.9,-72.6 -315.8,-73.2 l -1002.4,-5.2 c -258.8,-1.4 -526.7,-2.7 -787.9,25.9 -855.1,93.6 -1668.3,520.3 -2231.2,1170.8 -89.3,103.2 -165.7,215.7 -239.5,324.4 -186.3,274.3 -378.9,557.9 -788.2,693.6 -6.6,2.2 -13.6,-1.3 -15.8,-7.9 -2.1,-6.6 1.4,-13.6 7.9,-15.8 401.3,-133 583,-400.6 775.4,-683.9 74.2,-109.3 151,-222.4 241.3,-326.8 567,-655.1 1386.1,-1085 2247.4,-1179.2"
         style="fill:#120f0c;fill-opacity:1;fill-rule:nonzero;stroke:none"
         transform="matrix(0.13333333,0,0,-0.13333333,0,2829.3333)" />
      <path
         id="path48"
         d="m 11454.9,10175.5 c -180.4,150.8 -334,329.1 -456.3,530 -3.6,5.9 -11.3,7.8 -17.1,4.2 -5.9,-3.6 -7.8,-11.2 -4.2,-17.1 123.7,-203.3 279.1,-383.7 461.7,-536.2 l 7.9,-3 9.6,4.5 c 4.4,5.3 3.7,13.2 -1.6,17.6"
         style="fill:#120f0c;fill-opacity:1;fill-rule:nonzero;stroke:none"
         transform="matrix(0.13333333,0,0,-0.13333333,0,2829.3333)" />
      <path
         id="path49"
         d="m 11652.1,10159.9 c -118.2,79.1 -232.4,166.7 -339.4,260.3 -5.1,4.5 -13,4 -17.5,-1.1 -4.6,-5.2 -4.1,-13.1 1.1,-17.7 107.8,-94.3 222.9,-182.6 341.9,-262.3 l 6.9,-2.1 10.4,5.6 c 3.8,5.7 2.3,13.4 -3.4,17.3"
         style="fill:#120f0c;fill-opacity:1;fill-rule:nonzero;stroke:none"
         transform="matrix(0.13333333,0,0,-0.13333333,0,2829.3333)" />
      <path
         id="path50"
         d="m 14587.3,12045.1 9.6,-4.4 8,2.9 c 5.3,4.3 6,12.3 1.6,17.5 -204.5,244.4 -444,455.8 -711.8,628.4 -5.8,3.8 -13.6,2.1 -17.3,-3.7 -3.7,-5.8 -2,-13.6 3.8,-17.3 265.7,-171.1 503.3,-380.9 706.1,-623.4"
         style="fill:#120f0c;fill-opacity:1;fill-rule:nonzero;stroke:none"
         transform="matrix(0.13333333,0,0,-0.13333333,0,2829.3333)" />
      <path
         id="path51"
         d="m 13978.1,12432.4 c -3.2,-6.1 -0.9,-13.6 5.2,-16.8 98.3,-52.2 188.5,-117.8 268.1,-195.1 l 8.7,-3.5 9,3.8 c 4.8,4.9 4.7,12.8 -0.3,17.6 -81.3,78.9 -173.5,146 -273.8,199.2 -6.2,3.2 -13.6,0.9 -16.9,-5.2"
         style="fill:#120f0c;fill-opacity:1;fill-rule:nonzero;stroke:none"
         transform="matrix(0.13333333,0,0,-0.13333333,0,2829.3333)" />
      <path
         id="path52"
         d="m 14819.5,9701.4 c 0.3,-6.7 5.9,-11.8 12.4,-11.8 h 0.7 c 113.8,6.3 228.3,19 340.5,38 6.8,1.1 11.3,7.5 10.2,14.3 -1.2,6.9 -7.8,11.5 -14.4,10.2 -111.2,-18.7 -224.8,-31.4 -337.6,-37.6 -6.9,-0.4 -12.2,-6.3 -11.8,-13.1"
         style="fill:#120f0c;fill-opacity:1;fill-rule:nonzero;stroke:none"
         transform="matrix(0.13333333,0,0,-0.13333333,0,2829.3333)" />
      <path
         id="path53"
         d="m 15397.9,9790.2 h 0.7 c 6.5,0 12,5.1 12.4,11.8 0.4,6.8 -4.8,12.7 -11.7,13.2 -105.4,6.2 -211.6,18.9 -315.7,37.5 -6.6,1.3 -13.3,-3.3 -14.4,-10.1 -1.3,-6.7 3.2,-13.2 10,-14.4 105,-18.8 212.2,-31.6 318.7,-38"
         style="fill:#120f0c;fill-opacity:1;fill-rule:nonzero;stroke:none"
         transform="matrix(0.13333333,0,0,-0.13333333,0,2829.3333)" />
      <path
         id="path54"
         d="m 12817.6,9219.9 c -6.7,0.5 -13.1,-3.9 -14,-10.7 -1,-6.8 3.8,-13.1 10.6,-14.1 144.3,-19.9 285.2,-59.3 418.8,-117.2 l 4.9,-1 c 4.8,0 9.4,2.8 11.5,7.5 2.7,6.3 -0.2,13.7 -6.5,16.4 -135.7,58.8 -278.8,98.8 -425.3,119.1"
         style="fill:#120f0c;fill-opacity:1;fill-rule:nonzero;stroke:none"
         transform="matrix(0.13333333,0,0,-0.13333333,0,2829.3333)" />
      <path
         id="path55"
         d="m 14478.5,9165.2 10.9,6.4 c 3.3,6 1.2,13.6 -4.8,16.9 -194.7,109.1 -400.5,201.3 -611.5,274.3 -6.3,2.4 -13.6,-1.1 -15.8,-7.7 -2.3,-6.5 1.2,-13.6 7.7,-15.9 209.6,-72.5 413.9,-164.1 607.4,-272.4 l 6.1,-1.6"
         style="fill:#120f0c;fill-opacity:1;fill-rule:nonzero;stroke:none"
         transform="matrix(0.13333333,0,0,-0.13333333,0,2829.3333)" />
      <path
         id="path56"
         d="m 14938.9,7869.1 c -5.2,4.5 -13,4.1 -17.6,-1.1 -4.6,-5.2 -4.1,-13.1 1.1,-17.7 141.6,-125.3 261.5,-271.7 356.4,-435.3 l 10.8,-6.2 6.3,1.7 c 5.9,3.5 8,11.1 4.5,17.1 -96.3,165.8 -217.9,314.3 -361.5,441.5"
         style="fill:#120f0c;fill-opacity:1;fill-rule:nonzero;stroke:none"
         transform="matrix(0.13333333,0,0,-0.13333333,0,2829.3333)" />
      <path
         id="path57"
         d="m 16342.1,6733.9 c -5.9,-3.4 -8,-11.1 -4.6,-17 72.6,-126.3 136.9,-259 191.1,-394.3 2,-4.9 6.6,-7.8 11.6,-7.8 l 4.6,0.8 c 6.4,2.6 9.5,9.9 7,16.3 -54.7,136.4 -119.5,270.1 -192.6,397.4 -3.5,6 -11.2,8 -17.1,4.6"
         style="fill:#120f0c;fill-opacity:1;fill-rule:nonzero;stroke:none"
         transform="matrix(0.13333333,0,0,-0.13333333,0,2829.3333)" />
      <path
         id="path58"
         d="m 17065.8,5979.1 6.9,2.1 c 5.7,3.8 7.3,11.5 3.5,17.3 l -233.7,351.4 c -3.8,5.8 -11.6,7.3 -17.2,3.5 -5.8,-3.8 -7.4,-11.6 -3.5,-17.3 l 233.6,-351.5 10.4,-5.5"
         style="fill:#120f0c;fill-opacity:1;fill-rule:nonzero;stroke:none"
         transform="matrix(0.13333333,0,0,-0.13333333,0,2829.3333)" />
      <path
         id="path59"
         d="m 17622.2,4681 c -34.8,175.3 -78.5,351 -130.1,522.2 -2,6.7 -8.9,10.6 -15.6,8.4 -6.5,-2 -10.3,-8.9 -8.3,-15.6 51.4,-170.4 94.9,-345.3 129.5,-519.9 1.2,-5.9 6.4,-10 12.2,-10 l 2.4,0.2 c 6.8,1.4 11.2,7.9 9.9,14.7"
         style="fill:#120f0c;fill-opacity:1;fill-rule:nonzero;stroke:none"
         transform="matrix(0.13333333,0,0,-0.13333333,0,2829.3333)" />
      <path
         id="path60"
         d="m 15454.4,2879.2 c 172.6,0 363.9,58.3 580.7,176.5 68.7,37.3 136.9,78.3 202.8,117.9 139.6,83.7 283.9,170.4 438.5,226.9 6.4,2.3 9.8,9.5 7.4,15.9 -2.4,6.5 -9.5,9.9 -16,7.5 -156.8,-57.3 -302.2,-144.6 -442.7,-228.9 -65.7,-39.5 -133.7,-80.3 -201.9,-117.4 -265.4,-144.7 -491,-198 -689.6,-163.1 -6.6,1.3 -13.3,-3.3 -14.4,-10.1 -1.2,-6.8 3.3,-13.3 10.1,-14.4 40.6,-7.2 82.2,-10.8 125.1,-10.8"
         style="fill:#120f0c;fill-opacity:1;fill-rule:nonzero;stroke:none"
         transform="matrix(0.13333333,0,0,-0.13333333,0,2829.3333)" />
      <path
         id="path61"
         d="m 16880.9,3369.5 c -70.1,-65.4 -147.2,-123.9 -229,-173.9 -5.9,-3.6 -7.7,-11.3 -4.2,-17.2 l 10.7,-5.9 6.5,1.8 c 83.3,50.9 161.7,110.5 233.1,177 5,4.6 5.3,12.5 0.6,17.5 -4.7,5.2 -12.6,5.4 -17.7,0.7"
         style="fill:#120f0c;fill-opacity:1;fill-rule:nonzero;stroke:none"
         transform="matrix(0.13333333,0,0,-0.13333333,0,2829.3333)" />
      <path
         id="path62"
         d="m 16804.1,3211.8 c -43.5,-28.9 -85.6,-61 -125.1,-95.3 -5.1,-4.5 -5.7,-12.4 -1.2,-17.6 l 9.4,-4.3 8.2,3.1 c 38.7,33.6 79.9,65 122.5,93.4 5.7,3.8 7.3,11.5 3.5,17.3 -3.8,5.8 -11.6,7.2 -17.3,3.4"
         style="fill:#120f0c;fill-opacity:1;fill-rule:nonzero;stroke:none"
         transform="matrix(0.13333333,0,0,-0.13333333,0,2829.3333)" />
      <path
         id="path63"
         d="m 18006.4,3444 c -3.3,-6 -1.2,-13.6 4.8,-16.9 83.2,-46.8 170.5,-88.6 259.2,-124.3 l 4.7,-0.8 c 4.9,0 9.6,2.9 11.6,7.8 2.5,6.4 -0.6,13.6 -7,16.2 -87.7,35.2 -174,76.6 -256.3,122.8 -6,3.4 -13.6,1.3 -17,-4.8"
         style="fill:#120f0c;fill-opacity:1;fill-rule:nonzero;stroke:none"
         transform="matrix(0.13333333,0,0,-0.13333333,0,2829.3333)" />
      <path
         id="path64"
         d="m 17956.3,3327.8 c -3.7,-5.7 -2.1,-13.5 3.7,-17.2 76.6,-49.7 159.3,-89.2 245.8,-117.6 l 3.9,-0.7 c 5.2,0 10.1,3.3 11.8,8.6 2.2,6.6 -1.4,13.6 -7.9,15.7 -84.5,27.8 -165.2,66.4 -240,114.9 -5.7,3.7 -13.5,2.1 -17.3,-3.7"
         style="fill:#120f0c;fill-opacity:1;fill-rule:nonzero;stroke:none"
         transform="matrix(0.13333333,0,0,-0.13333333,0,2829.3333)" />
      <path
         id="path65"
         d="m 18640,2561.8 c 6.6,0 12.1,5.2 12.4,11.9 0.3,6.9 -5,12.7 -11.9,13 -253.1,10.7 -499.1,67.4 -731.2,168.4 -6.3,2.6 -13.7,-0.1 -16.4,-6.5 -2.8,-6.3 0.1,-13.6 6.4,-16.4 235,-102.3 484,-159.6 740.1,-170.4 h 0.6"
         style="fill:#120f0c;fill-opacity:1;fill-rule:nonzero;stroke:none"
         transform="matrix(0.13333333,0,0,-0.13333333,0,2829.3333)" />
      <path
         id="path66"
         d="m 16277,3129.2 c -79.7,-67.8 -169.2,-122.3 -266,-161.9 -6.4,-2.6 -9.4,-9.9 -6.8,-16.3 2,-4.8 6.6,-7.7 11.5,-7.7 l 4.8,0.9 c 99.2,40.6 191,96.5 272.6,166 5.3,4.5 5.9,12.4 1.4,17.6 -4.5,5.2 -12.3,5.9 -17.5,1.4"
         style="fill:#120f0c;fill-opacity:1;fill-rule:nonzero;stroke:none"
         transform="matrix(0.13333333,0,0,-0.13333333,0,2829.3333)" />
      <path
         id="path67"
         d="m 18097.7,2832.2 c -6.5,2.3 -13.6,-1.1 -15.9,-7.6 -2.3,-6.4 1,-13.6 7.5,-15.9 78.2,-27.9 162.5,-42.4 245.9,-42.4 12.1,0 24.2,0.4 36.3,0.9 6.9,0.4 12.2,6.3 11.8,13.1 -0.3,6.9 -5.2,11.7 -13.1,11.9 -91.8,-4.7 -186.1,9.1 -272.5,40"
         style="fill:#120f0c;fill-opacity:1;fill-rule:nonzero;stroke:none"
         transform="matrix(0.13333333,0,0,-0.13333333,0,2829.3333)" />
      <path
         id="path68"
         d="m 17216.1,3089.9 3.5,-0.5 c 5.4,0 10.4,3.6 12,9 126.8,439 177.6,856.9 150.9,1242.2 -30.9,444.1 -165.9,852.9 -390.6,1182.4 -3.9,5.7 -11.7,7.2 -17.3,3.4 -5.7,-3.9 -7.2,-11.7 -3.3,-17.4 222.2,-325.8 355.8,-730.5 386.3,-1170.1 26.5,-382.3 -23.9,-797.4 -150,-1233.5 -1.9,-6.7 1.9,-13.6 8.5,-15.5"
         style="fill:#120f0c;fill-opacity:1;fill-rule:nonzero;stroke:none"
         transform="matrix(0.13333333,0,0,-0.13333333,0,2829.3333)" />
      <path
         id="path69"
         d="m 17412.9,3478.3 2.3,-0.2 c 5.9,0 11.2,4.2 12.3,10.2 45.5,242.1 64.6,489.6 56.6,735.5 -0.2,6.9 -4.8,12.1 -12.9,12.1 -6.8,-0.3 -12.3,-6 -12,-12.9 7.9,-244.2 -11,-489.8 -56.2,-730.1 -1.3,-6.8 3.1,-13.3 9.9,-14.6"
         style="fill:#120f0c;fill-opacity:1;fill-rule:nonzero;stroke:none"
         transform="matrix(0.13333333,0,0,-0.13333333,0,2829.3333)" />
      <path
         id="path70"
         d="m 16093.2,11521.3 c -4.5,5.3 -12.4,5.8 -17.6,1.3 -5.2,-4.5 -5.7,-12.4 -1.2,-17.5 618.3,-715 1086.2,-1572.2 1353.1,-2478.9 1.6,-5.5 6.6,-9 12,-9 l 3.5,0.5 c 6.6,2 10.4,8.9 8.4,15.5 -267.9,910.2 -737.5,1770.5 -1358.2,2488.1"
         style="fill:#120f0c;fill-opacity:1;fill-rule:nonzero;stroke:none"
         transform="matrix(0.13333333,0,0,-0.13333333,0,2829.3333)" />
      <path
         id="path71"
         d="m 17492.8,9401.4 c -6.4,-2.5 -9.7,-9.6 -7.3,-16 68.2,-182.9 121.2,-372.8 157.6,-564.6 1.2,-6 6.4,-10.1 12.2,-10.1 l 2.4,0.2 c 6.8,1.3 11.2,7.8 9.9,14.6 -36.6,193.1 -90.1,384.4 -158.7,568.5 -2.5,6.5 -9.7,9.8 -16.1,7.4"
         style="fill:#120f0c;fill-opacity:1;fill-rule:nonzero;stroke:none"
         transform="matrix(0.13333333,0,0,-0.13333333,0,2829.3333)" />
      <path
         id="path72"
         d="m 15737.4,11695.2 c -5.4,-4.3 -6.3,-12.1 -2.1,-17.5 203.6,-257.9 399.1,-527.5 581.1,-801.4 l 10.4,-5.6 6.9,2.1 c 5.8,3.8 7.3,11.6 3.5,17.3 -182.4,274.5 -378.3,544.7 -582.3,803.1 -4.3,5.4 -12.1,6.3 -17.5,2"
         style="fill:#120f0c;fill-opacity:1;fill-rule:nonzero;stroke:none"
         transform="matrix(0.13333333,0,0,-0.13333333,0,2829.3333)" />
      <path
         id="path73"
         d="m 14343.2,14265.4 9.3,-4.1 8.3,3.1 c 5.1,4.5 5.6,12.4 1.1,17.6 -1020,1148.9 -2409,1958.8 -3911.3,2280.4 -6.6,1.3 -13.3,-2.8 -14.8,-9.6 -1.4,-6.7 2.9,-13.3 9.6,-14.8 1497.1,-320.4 2881.4,-1127.6 3897.8,-2272.6"
         style="fill:#120f0c;fill-opacity:1;fill-rule:nonzero;stroke:none"
         transform="matrix(0.13333333,0,0,-0.13333333,0,2829.3333)" />
      <path
         id="path74"
         d="m 15442.3,13990.2 10.9,-6.3 6.2,1.7 c 5.9,3.4 8,11.1 4.6,17 -364.4,634.5 -992.6,1079.7 -1546.8,1472.5 -5.5,3.9 -13.3,2.6 -17.3,-3 -4,-5.6 -2.7,-13.4 2.9,-17.4 552.1,-391.3 1177.9,-834.7 1539.5,-1464.5"
         style="fill:#120f0c;fill-opacity:1;fill-rule:nonzero;stroke:none"
         transform="matrix(0.13333333,0,0,-0.13333333,0,2829.3333)" />
      <path
         id="path75"
         d="m 13569.5,15499.8 c -3.5,-5.9 -1.7,-13.5 4.2,-17.2 158.9,-97.3 308.1,-211.7 443.4,-339.7 l 8.6,-3.5 9.1,4 c 4.7,5 4.5,12.9 -0.5,17.6 -136.6,129.2 -287.2,244.6 -447.6,342.9 -5.9,3.6 -13.5,1.8 -17.2,-4.1"
         style="fill:#120f0c;fill-opacity:1;fill-rule:nonzero;stroke:none"
         transform="matrix(0.13333333,0,0,-0.13333333,0,2829.3333)" />
      <path
         id="path76"
         d="m 11995.3,15742 c -6.5,2.2 -13.5,-1.3 -15.8,-7.8 -2.2,-6.5 1.3,-13.6 7.9,-15.8 440.4,-148.9 843.1,-405.3 1164.5,-741.3 l 9,-3.8 8.6,3.4 c 5,4.8 5.2,12.7 0.4,17.7 -324.2,338.9 -730.3,597.4 -1174.6,747.6"
         style="fill:#120f0c;fill-opacity:1;fill-rule:nonzero;stroke:none"
         transform="matrix(0.13333333,0,0,-0.13333333,0,2829.3333)" />
      <path
         id="path77"
         d="m 15466.7,13754.6 10.4,-5.6 6.9,2 c 5.7,3.8 7.3,11.4 3.6,17.3 -137,210 -301.2,401.3 -488,568.6 -5.1,4.5 -13,4.1 -17.6,-1 -4.6,-5.2 -4.2,-13 0.9,-17.6 185.2,-165.8 348,-355.5 483.8,-563.7"
         style="fill:#120f0c;fill-opacity:1;fill-rule:nonzero;stroke:none"
         transform="matrix(0.13333333,0,0,-0.13333333,0,2829.3333)" />
      <path
         id="path78"
         d="m 5903.08,17267.1 c 97.93,-74.9 188.38,-160.2 268.87,-253.4 l 9.45,-4.4 8.16,3.1 c 5.21,4.5 5.77,12.3 1.29,17.6 -81.61,94.5 -173.32,181 -272.62,256.9 -5.46,4.2 -13.28,3.2 -17.49,-2.3 -4.17,-5.5 -3.15,-13.3 2.34,-17.5"
         style="fill:#120f0c;fill-opacity:1;fill-rule:nonzero;stroke:none"
         transform="matrix(0.13333333,0,0,-0.13333333,0,2829.3333)" />
      <path
         id="path79"
         d="m 6038.57,17276.4 c 88.94,-41.3 172.57,-93.7 248.53,-155.8 l 7.89,-2.8 9.67,4.6 c 4.33,5.4 3.56,13.2 -1.78,17.6 -77.59,63.4 -162.97,116.9 -253.78,159 -6.29,3 -13.7,0.3 -16.57,-6 -2.9,-6.3 -0.2,-13.7 6.04,-16.6"
         style="fill:#120f0c;fill-opacity:1;fill-rule:nonzero;stroke:none"
         transform="matrix(0.13333333,0,0,-0.13333333,0,2829.3333)" />
      <path
         id="path80"
         d="m 7775.35,12392.9 c 634.23,-522.2 1390.94,-902.8 2188.29,-1100.8 l 2.99,-0.4 c 5.6,0 10.7,3.8 12.11,9.4 1.65,6.7 -2.42,13.5 -9.11,15.1 -793.74,197.2 -1547.04,576.1 -2178.44,1095.9 -5.26,4.4 -13.16,3.6 -17.54,-1.7 -4.39,-5.3 -3.63,-13.2 1.7,-17.5"
         style="fill:#120f0c;fill-opacity:1;fill-rule:nonzero;stroke:none"
         transform="matrix(0.13333333,0,0,-0.13333333,0,2829.3333)" />
      <path
         id="path81"
         d="m 10350.1,11111 c 6.7,0 12.2,5.4 12.4,12.1 0.2,7 -5.2,12.7 -12.1,12.9 -229.3,6.7 -457.41,42.2 -678.07,105.5 -6.72,2 -13.54,-2 -15.42,-8.6 -1.9,-6.6 1.93,-13.5 8.55,-15.4 222.66,-63.8 452.84,-99.6 684.24,-106.5 h 0.4"
         style="fill:#120f0c;fill-opacity:1;fill-rule:nonzero;stroke:none"
         transform="matrix(0.13333333,0,0,-0.13333333,0,2829.3333)" />
      <path
         id="path82"
         d="m 7735.57,12666.7 c -4.7,-5 -4.43,-12.9 0.59,-17.6 219.07,-205.3 461.75,-385.9 721.26,-536.9 l 6.26,-1.7 10.79,6.2 c 3.47,6 1.44,13.6 -4.53,17.1 -257.87,150 -499.02,329.5 -716.73,533.5 -5.04,4.7 -12.94,4.5 -17.64,-0.6"
         style="fill:#120f0c;fill-opacity:1;fill-rule:nonzero;stroke:none"
         transform="matrix(0.13333333,0,0,-0.13333333,0,2829.3333)" />
    </g>
  </g>
</svg>
